<mxfile host="www.draw.io" modified="2020-02-22T18:49:42.197Z" agent="Mozilla/5.0 (Windows NT 10.0; Win64; x64) AppleWebKit/537.36 (KHTML, like Gecko) Chrome/79.0.3945.130 Safari/537.36" etag="IKBUa6axvBb5tEmNZCWL" version="12.7.4" type="github">
  <diagram id="CLRaHryyYa0xOvTVhCor" name="Page-1">
    <mxGraphModel dx="706" dy="446" grid="1" gridSize="10" guides="1" tooltips="1" connect="1" arrows="1" fold="1" page="1" pageScale="1" pageWidth="850" pageHeight="1100" math="0" shadow="0">
      <root>
        <mxCell id="0" />
        <mxCell id="1" parent="0" />
        <mxCell id="xvll8Nh_N9pdd9aSw5_w-8" value="-" style="group" parent="1" vertex="1" connectable="0">
          <mxGeometry x="240" y="60" width="260" height="250" as="geometry" />
        </mxCell>
        <mxCell id="xvll8Nh_N9pdd9aSw5_w-6" value="Order" style="text;html=1;align=center;verticalAlign=middle;whiteSpace=wrap;rounded=0;strokeColor=#000000;fillColor=#ffffff;" parent="xvll8Nh_N9pdd9aSw5_w-8" vertex="1">
          <mxGeometry width="260" height="17.16" as="geometry" />
        </mxCell>
        <mxCell id="xvll8Nh_N9pdd9aSw5_w-7" value="&amp;nbsp; -&amp;nbsp; unsigned int: orderNumber&lt;br&gt;&amp;nbsp; -&amp;nbsp; String: clientID&lt;br&gt;&amp;nbsp; -&amp;nbsp; ItemList: orderedItems&lt;br&gt;&amp;nbsp; -&amp;nbsp; String: date&lt;br&gt;&amp;nbsp;+ void: addItem(product, quantity)&lt;br&gt;&amp;nbsp;+ void: removeItem(product)&lt;br&gt;&amp;nbsp;+ void: modifyItemQuantity(product, quantity)&lt;br&gt;&amp;nbsp;+ Iterator: getItemList()&lt;br&gt;&amp;nbsp;+ int: getItemQuantity(product)&lt;br&gt;&amp;nbsp;+&amp;nbsp; unsigned int:&amp;nbsp; getOrderNumber()&lt;br&gt;&amp;nbsp;+&amp;nbsp; ProductIterator: showProductData()" style="text;html=1;align=left;verticalAlign=middle;whiteSpace=wrap;rounded=0;strokeColor=#000000;fillColor=#ffffff;" parent="xvll8Nh_N9pdd9aSw5_w-8" vertex="1">
          <mxGeometry y="17.15" width="260" height="232.85" as="geometry" />
        </mxCell>
      </root>
    </mxGraphModel>
  </diagram>
</mxfile>
